<mxfile host="app.diagrams.net" modified="2024-06-16T09:40:19.563Z" agent="Mozilla/5.0 (Windows NT 10.0; Win64; x64; rv:127.0) Gecko/20100101 Firefox/127.0" etag="aJlWvoBAflyaQT8ewZr4" version="24.5.4" type="google">
  <diagram name="Page-1" id="mS3x5H4gVUchH6BIxc-D">
    <mxGraphModel grid="1" page="1" gridSize="10" guides="1" tooltips="1" connect="1" arrows="1" fold="1" pageScale="1" pageWidth="827" pageHeight="1169" background="#000000" math="0" shadow="0">
      <root>
        <mxCell id="0" />
        <mxCell id="1" parent="0" />
        <mxCell id="uT1FihXkAcQ13UwmaDKQ-120" value="" style="rounded=0;whiteSpace=wrap;html=1;strokeColor=#FFFFFF;fillColor=#000000;" vertex="1" parent="1">
          <mxGeometry x="10" y="30" width="1290" height="860" as="geometry" />
        </mxCell>
        <mxCell id="b4BTde2A2ARgJKAkidY3-1" value="" style="ellipse;whiteSpace=wrap;html=1;aspect=fixed;fillColor=#647687;strokeColor=#314354;fontColor=#ffffff;" vertex="1" parent="1">
          <mxGeometry x="40" y="710" width="100" height="100" as="geometry" />
        </mxCell>
        <mxCell id="b4BTde2A2ARgJKAkidY3-2" value="" style="ellipse;whiteSpace=wrap;html=1;aspect=fixed;fillColor=#f8cecc;gradientColor=#ea6b66;strokeColor=#b85450;" vertex="1" parent="1">
          <mxGeometry x="65" y="735" width="50" height="50" as="geometry" />
        </mxCell>
        <mxCell id="b4BTde2A2ARgJKAkidY3-3" value="" style="ellipse;whiteSpace=wrap;html=1;aspect=fixed;fillColor=#647687;strokeColor=#314354;fontColor=#ffffff;" vertex="1" parent="1">
          <mxGeometry x="40" y="590" width="100" height="100" as="geometry" />
        </mxCell>
        <mxCell id="b4BTde2A2ARgJKAkidY3-4" value="" style="ellipse;whiteSpace=wrap;html=1;aspect=fixed;fillColor=#647687;strokeColor=#314354;fontColor=#ffffff;" vertex="1" parent="1">
          <mxGeometry x="160" y="710" width="100" height="100" as="geometry" />
        </mxCell>
        <mxCell id="b4BTde2A2ARgJKAkidY3-5" value="" style="ellipse;whiteSpace=wrap;html=1;aspect=fixed;fillColor=#647687;strokeColor=#314354;fontColor=#ffffff;" vertex="1" parent="1">
          <mxGeometry x="160" y="590" width="100" height="100" as="geometry" />
        </mxCell>
        <mxCell id="b4BTde2A2ARgJKAkidY3-6" value="" style="ellipse;whiteSpace=wrap;html=1;aspect=fixed;fillColor=#f8cecc;gradientColor=#ea6b66;strokeColor=#b85450;" vertex="1" parent="1">
          <mxGeometry x="185" y="615" width="50" height="50" as="geometry" />
        </mxCell>
        <mxCell id="b4BTde2A2ARgJKAkidY3-9" value="" style="ellipse;whiteSpace=wrap;html=1;aspect=fixed;fillColor=#647687;strokeColor=#314354;fontColor=#ffffff;" vertex="1" parent="1">
          <mxGeometry x="310" y="710" width="100" height="100" as="geometry" />
        </mxCell>
        <mxCell id="b4BTde2A2ARgJKAkidY3-10" value="" style="ellipse;whiteSpace=wrap;html=1;aspect=fixed;fillColor=#f8cecc;gradientColor=#ea6b66;strokeColor=#b85450;" vertex="1" parent="1">
          <mxGeometry x="335" y="735" width="50" height="50" as="geometry" />
        </mxCell>
        <mxCell id="b4BTde2A2ARgJKAkidY3-11" value="" style="ellipse;whiteSpace=wrap;html=1;aspect=fixed;fillColor=#647687;strokeColor=#314354;fontColor=#ffffff;" vertex="1" parent="1">
          <mxGeometry x="310" y="590" width="100" height="100" as="geometry" />
        </mxCell>
        <mxCell id="b4BTde2A2ARgJKAkidY3-12" value="" style="ellipse;whiteSpace=wrap;html=1;aspect=fixed;fillColor=#647687;strokeColor=#314354;fontColor=#ffffff;" vertex="1" parent="1">
          <mxGeometry x="430" y="710" width="100" height="100" as="geometry" />
        </mxCell>
        <mxCell id="b4BTde2A2ARgJKAkidY3-13" value="" style="ellipse;whiteSpace=wrap;html=1;aspect=fixed;fillColor=#647687;strokeColor=#314354;fontColor=#ffffff;" vertex="1" parent="1">
          <mxGeometry x="430" y="590" width="100" height="100" as="geometry" />
        </mxCell>
        <mxCell id="b4BTde2A2ARgJKAkidY3-14" value="" style="ellipse;whiteSpace=wrap;html=1;aspect=fixed;fillColor=#f8cecc;gradientColor=#ea6b66;strokeColor=#b85450;" vertex="1" parent="1">
          <mxGeometry x="455" y="615" width="50" height="50" as="geometry" />
        </mxCell>
        <mxCell id="b4BTde2A2ARgJKAkidY3-15" value="" style="ellipse;whiteSpace=wrap;html=1;aspect=fixed;fillColor=#647687;strokeColor=#314354;fontColor=#ffffff;" vertex="1" parent="1">
          <mxGeometry x="40" y="470" width="100" height="100" as="geometry" />
        </mxCell>
        <mxCell id="b4BTde2A2ARgJKAkidY3-16" value="" style="ellipse;whiteSpace=wrap;html=1;aspect=fixed;fillColor=#f8cecc;gradientColor=#ea6b66;strokeColor=#b85450;" vertex="1" parent="1">
          <mxGeometry x="65" y="495" width="50" height="50" as="geometry" />
        </mxCell>
        <mxCell id="b4BTde2A2ARgJKAkidY3-17" value="" style="ellipse;whiteSpace=wrap;html=1;aspect=fixed;fillColor=#647687;strokeColor=#314354;fontColor=#ffffff;" vertex="1" parent="1">
          <mxGeometry x="40" y="340" width="100" height="100" as="geometry" />
        </mxCell>
        <mxCell id="b4BTde2A2ARgJKAkidY3-18" value="" style="ellipse;whiteSpace=wrap;html=1;aspect=fixed;fillColor=#647687;strokeColor=#314354;fontColor=#ffffff;" vertex="1" parent="1">
          <mxGeometry x="40" y="220" width="100" height="100" as="geometry" />
        </mxCell>
        <mxCell id="b4BTde2A2ARgJKAkidY3-19" value="" style="ellipse;whiteSpace=wrap;html=1;aspect=fixed;fillColor=#f8cecc;gradientColor=#ea6b66;strokeColor=#b85450;" vertex="1" parent="1">
          <mxGeometry x="65" y="245" width="50" height="50" as="geometry" />
        </mxCell>
        <mxCell id="b4BTde2A2ARgJKAkidY3-20" value="" style="ellipse;whiteSpace=wrap;html=1;aspect=fixed;fillColor=#647687;strokeColor=#314354;fontColor=#ffffff;" vertex="1" parent="1">
          <mxGeometry x="160" y="220" width="100" height="100" as="geometry" />
        </mxCell>
        <mxCell id="b4BTde2A2ARgJKAkidY3-21" value="" style="ellipse;whiteSpace=wrap;html=1;aspect=fixed;fillColor=#f8cecc;strokeColor=#b85450;gradientColor=#ea6b66;" vertex="1" parent="1">
          <mxGeometry x="185" y="245" width="50" height="50" as="geometry" />
        </mxCell>
        <mxCell id="b4BTde2A2ARgJKAkidY3-26" value="" style="ellipse;whiteSpace=wrap;html=1;aspect=fixed;fillColor=#647687;strokeColor=#314354;fontColor=#ffffff;" vertex="1" parent="1">
          <mxGeometry x="160" y="340" width="100" height="100" as="geometry" />
        </mxCell>
        <mxCell id="b4BTde2A2ARgJKAkidY3-27" value="" style="ellipse;whiteSpace=wrap;html=1;aspect=fixed;fillColor=#647687;strokeColor=#314354;fontColor=#ffffff;" vertex="1" parent="1">
          <mxGeometry x="310" y="340" width="100" height="100" as="geometry" />
        </mxCell>
        <mxCell id="b4BTde2A2ARgJKAkidY3-28" value="" style="ellipse;whiteSpace=wrap;html=1;aspect=fixed;fillColor=#f8cecc;gradientColor=#ea6b66;strokeColor=#b85450;" vertex="1" parent="1">
          <mxGeometry x="335" y="365" width="50" height="50" as="geometry" />
        </mxCell>
        <mxCell id="b4BTde2A2ARgJKAkidY3-29" value="" style="ellipse;whiteSpace=wrap;html=1;aspect=fixed;fillColor=#647687;strokeColor=#314354;fontColor=#ffffff;" vertex="1" parent="1">
          <mxGeometry x="310" y="220" width="100" height="100" as="geometry" />
        </mxCell>
        <mxCell id="b4BTde2A2ARgJKAkidY3-30" value="" style="ellipse;whiteSpace=wrap;html=1;aspect=fixed;fillColor=#647687;strokeColor=#314354;fontColor=#ffffff;" vertex="1" parent="1">
          <mxGeometry x="430" y="340" width="100" height="100" as="geometry" />
        </mxCell>
        <mxCell id="b4BTde2A2ARgJKAkidY3-31" value="" style="ellipse;whiteSpace=wrap;html=1;aspect=fixed;fillColor=#f8cecc;gradientColor=#ea6b66;strokeColor=#b85450;" vertex="1" parent="1">
          <mxGeometry x="455" y="365" width="50" height="50" as="geometry" />
        </mxCell>
        <mxCell id="b4BTde2A2ARgJKAkidY3-32" value="" style="ellipse;whiteSpace=wrap;html=1;aspect=fixed;fillColor=#647687;strokeColor=#314354;fontColor=#ffffff;" vertex="1" parent="1">
          <mxGeometry x="430" y="220" width="100" height="100" as="geometry" />
        </mxCell>
        <mxCell id="b4BTde2A2ARgJKAkidY3-33" value="" style="ellipse;whiteSpace=wrap;html=1;aspect=fixed;fillColor=#647687;strokeColor=#314354;fontColor=#ffffff;" vertex="1" parent="1">
          <mxGeometry x="430" y="470" width="100" height="100" as="geometry" />
        </mxCell>
        <mxCell id="b4BTde2A2ARgJKAkidY3-34" value="" style="ellipse;whiteSpace=wrap;html=1;aspect=fixed;fillColor=#647687;strokeColor=#314354;fontColor=#ffffff;" vertex="1" parent="1">
          <mxGeometry x="100" y="90" width="100" height="100" as="geometry" />
        </mxCell>
        <mxCell id="b4BTde2A2ARgJKAkidY3-38" value="" style="ellipse;whiteSpace=wrap;html=1;aspect=fixed;fillColor=#647687;fontColor=#ffffff;strokeColor=#314354;" vertex="1" parent="1">
          <mxGeometry x="375" y="90" width="100" height="100" as="geometry" />
        </mxCell>
        <mxCell id="b4BTde2A2ARgJKAkidY3-39" value="" style="ellipse;whiteSpace=wrap;html=1;aspect=fixed;fillColor=#f8cecc;gradientColor=#ea6b66;strokeColor=#b85450;" vertex="1" parent="1">
          <mxGeometry x="400" y="115" width="50" height="50" as="geometry" />
        </mxCell>
        <mxCell id="uT1FihXkAcQ13UwmaDKQ-1" value="&lt;div style=&quot;font-size: 16px;&quot;&gt;&lt;font style=&quot;font-size: 16px;&quot;&gt;&lt;b&gt;&lt;font style=&quot;font-size: 16px;&quot; color=&quot;#ffffff&quot;&gt;Big 4 Pin &lt;/font&gt;&lt;/b&gt;&lt;/font&gt;&lt;font style=&quot;font-size: 16px;&quot;&gt;&lt;b&gt;&lt;font style=&quot;font-size: 16px;&quot; color=&quot;#ffffff&quot;&gt;Connector Top Side&lt;br&gt;&lt;/font&gt;&lt;/b&gt;&lt;/font&gt;&lt;/div&gt;&lt;div style=&quot;font-size: 16px;&quot;&gt;&lt;font style=&quot;font-size: 16px;&quot;&gt;&lt;b&gt;&lt;font style=&quot;font-size: 16px;&quot; color=&quot;#ffffff&quot;&gt;P+ CHG+ COM ___&lt;br&gt;&lt;/font&gt;&lt;/b&gt;&lt;/font&gt;&lt;/div&gt;" style="rounded=0;whiteSpace=wrap;html=1;strokeColor=#FFFFFF;fillColor=#000000;" vertex="1" parent="1">
          <mxGeometry x="80" y="820" width="400" height="50" as="geometry" />
        </mxCell>
        <mxCell id="uT1FihXkAcQ13UwmaDKQ-3" value="" style="endArrow=classic;html=1;rounded=0;" edge="1" parent="1">
          <mxGeometry width="50" height="50" relative="1" as="geometry">
            <mxPoint x="400" y="500" as="sourcePoint" />
            <mxPoint x="450" y="450" as="targetPoint" />
          </mxGeometry>
        </mxCell>
        <mxCell id="uT1FihXkAcQ13UwmaDKQ-4" value="" style="endArrow=none;html=1;rounded=0;" edge="1" parent="1">
          <mxGeometry width="50" height="50" relative="1" as="geometry">
            <mxPoint x="400" y="500" as="sourcePoint" />
            <mxPoint x="450" y="450" as="targetPoint" />
          </mxGeometry>
        </mxCell>
        <mxCell id="uT1FihXkAcQ13UwmaDKQ-7" value="&lt;font style=&quot;font-size: 24px;&quot;&gt;&lt;b&gt;1&lt;/b&gt;&lt;/font&gt;" style="ellipse;whiteSpace=wrap;html=1;aspect=fixed;fillColor=none;" vertex="1" parent="1">
          <mxGeometry x="440" y="720" width="80" height="80" as="geometry" />
        </mxCell>
        <mxCell id="uT1FihXkAcQ13UwmaDKQ-8" value="&lt;font style=&quot;font-size: 24px;&quot;&gt;&lt;b&gt;2&lt;/b&gt;&lt;/font&gt;" style="ellipse;whiteSpace=wrap;html=1;aspect=fixed;fillColor=none;" vertex="1" parent="1">
          <mxGeometry x="320" y="720" width="80" height="80" as="geometry" />
        </mxCell>
        <mxCell id="uT1FihXkAcQ13UwmaDKQ-9" value="&lt;div&gt;&lt;font style=&quot;font-size: 24px;&quot;&gt;&lt;b&gt;3&lt;/b&gt;&lt;/font&gt;&lt;/div&gt;" style="ellipse;whiteSpace=wrap;html=1;aspect=fixed;fillColor=none;" vertex="1" parent="1">
          <mxGeometry x="320" y="600" width="80" height="80" as="geometry" />
        </mxCell>
        <mxCell id="uT1FihXkAcQ13UwmaDKQ-10" value="&lt;font style=&quot;font-size: 24px;&quot;&gt;&lt;b&gt;4&lt;/b&gt;&lt;/font&gt;" style="ellipse;whiteSpace=wrap;html=1;aspect=fixed;fillColor=none;" vertex="1" parent="1">
          <mxGeometry x="440" y="600" width="80" height="80" as="geometry" />
        </mxCell>
        <mxCell id="uT1FihXkAcQ13UwmaDKQ-11" value="&lt;font style=&quot;font-size: 24px;&quot;&gt;&lt;b&gt;5&lt;/b&gt;&lt;/font&gt;" style="ellipse;whiteSpace=wrap;html=1;aspect=fixed;fillColor=none;" vertex="1" parent="1">
          <mxGeometry x="440" y="480" width="80" height="80" as="geometry" />
        </mxCell>
        <mxCell id="uT1FihXkAcQ13UwmaDKQ-12" value="&lt;font style=&quot;font-size: 24px;&quot;&gt;&lt;b&gt;6&lt;/b&gt;&lt;/font&gt;" style="ellipse;whiteSpace=wrap;html=1;aspect=fixed;fillColor=none;" vertex="1" parent="1">
          <mxGeometry x="440" y="350" width="80" height="80" as="geometry" />
        </mxCell>
        <mxCell id="uT1FihXkAcQ13UwmaDKQ-13" value="&lt;font style=&quot;font-size: 24px;&quot;&gt;&lt;b&gt;8&lt;/b&gt;&lt;/font&gt;" style="ellipse;whiteSpace=wrap;html=1;aspect=fixed;fillColor=none;" vertex="1" parent="1">
          <mxGeometry x="385" y="100" width="80" height="80" as="geometry" />
        </mxCell>
        <mxCell id="uT1FihXkAcQ13UwmaDKQ-14" value="&lt;font style=&quot;font-size: 24px;&quot;&gt;&lt;b&gt;7&lt;/b&gt;&lt;/font&gt;" style="ellipse;whiteSpace=wrap;html=1;aspect=fixed;fillColor=none;" vertex="1" parent="1">
          <mxGeometry x="440" y="230" width="80" height="80" as="geometry" />
        </mxCell>
        <mxCell id="uT1FihXkAcQ13UwmaDKQ-15" value="&lt;font style=&quot;font-size: 24px;&quot;&gt;&lt;b&gt;9&lt;/b&gt;&lt;/font&gt;" style="ellipse;whiteSpace=wrap;html=1;aspect=fixed;fillColor=none;" vertex="1" parent="1">
          <mxGeometry x="320" y="230" width="80" height="80" as="geometry" />
        </mxCell>
        <mxCell id="uT1FihXkAcQ13UwmaDKQ-16" value="&lt;font style=&quot;font-size: 24px;&quot;&gt;&lt;b&gt;10&lt;/b&gt;&lt;/font&gt;" style="ellipse;whiteSpace=wrap;html=1;aspect=fixed;fillColor=none;" vertex="1" parent="1">
          <mxGeometry x="320" y="350" width="80" height="80" as="geometry" />
        </mxCell>
        <mxCell id="uT1FihXkAcQ13UwmaDKQ-17" value="&lt;font style=&quot;font-size: 24px;&quot;&gt;&lt;b&gt;11&lt;/b&gt;&lt;/font&gt;" style="ellipse;whiteSpace=wrap;html=1;aspect=fixed;fillColor=none;" vertex="1" parent="1">
          <mxGeometry x="170" y="350" width="80" height="80" as="geometry" />
        </mxCell>
        <mxCell id="uT1FihXkAcQ13UwmaDKQ-18" value="&lt;font style=&quot;font-size: 24px;&quot;&gt;&lt;b&gt;12&lt;/b&gt;&lt;/font&gt;" style="ellipse;whiteSpace=wrap;html=1;aspect=fixed;fillColor=none;" vertex="1" parent="1">
          <mxGeometry x="170" y="230" width="80" height="80" as="geometry" />
        </mxCell>
        <mxCell id="uT1FihXkAcQ13UwmaDKQ-19" value="&lt;font style=&quot;font-size: 24px;&quot;&gt;&lt;b&gt;13&lt;/b&gt;&lt;/font&gt;" style="ellipse;whiteSpace=wrap;html=1;aspect=fixed;fillColor=none;" vertex="1" parent="1">
          <mxGeometry x="110" y="100" width="80" height="80" as="geometry" />
        </mxCell>
        <mxCell id="uT1FihXkAcQ13UwmaDKQ-20" value="&lt;font style=&quot;font-size: 24px;&quot;&gt;&lt;b&gt;14&lt;/b&gt;&lt;/font&gt;" style="ellipse;whiteSpace=wrap;html=1;aspect=fixed;fillColor=none;" vertex="1" parent="1">
          <mxGeometry x="50" y="230" width="80" height="80" as="geometry" />
        </mxCell>
        <mxCell id="uT1FihXkAcQ13UwmaDKQ-21" value="&lt;font style=&quot;font-size: 24px;&quot;&gt;&lt;b&gt;15&lt;/b&gt;&lt;/font&gt;" style="ellipse;whiteSpace=wrap;html=1;aspect=fixed;fillColor=none;" vertex="1" parent="1">
          <mxGeometry x="50" y="350" width="80" height="80" as="geometry" />
        </mxCell>
        <mxCell id="uT1FihXkAcQ13UwmaDKQ-22" value="&lt;font style=&quot;font-size: 24px;&quot;&gt;&lt;b&gt;16&lt;/b&gt;&lt;/font&gt;" style="ellipse;whiteSpace=wrap;html=1;aspect=fixed;fillColor=none;" vertex="1" parent="1">
          <mxGeometry x="50" y="480" width="80" height="80" as="geometry" />
        </mxCell>
        <mxCell id="uT1FihXkAcQ13UwmaDKQ-23" value="&lt;font style=&quot;font-size: 24px;&quot;&gt;&lt;b&gt;17&lt;/b&gt;&lt;/font&gt;" style="ellipse;whiteSpace=wrap;html=1;aspect=fixed;fillColor=none;" vertex="1" parent="1">
          <mxGeometry x="50" y="600" width="80" height="80" as="geometry" />
        </mxCell>
        <mxCell id="uT1FihXkAcQ13UwmaDKQ-24" value="&lt;font style=&quot;font-size: 24px;&quot;&gt;&lt;b&gt;18&lt;/b&gt;&lt;/font&gt;" style="ellipse;whiteSpace=wrap;html=1;aspect=fixed;fillColor=none;" vertex="1" parent="1">
          <mxGeometry x="170" y="600" width="80" height="80" as="geometry" />
        </mxCell>
        <mxCell id="uT1FihXkAcQ13UwmaDKQ-25" value="&lt;font style=&quot;font-size: 24px;&quot;&gt;&lt;b&gt;19&lt;/b&gt;&lt;/font&gt;" style="ellipse;whiteSpace=wrap;html=1;aspect=fixed;fillColor=none;" vertex="1" parent="1">
          <mxGeometry x="170" y="720" width="80" height="80" as="geometry" />
        </mxCell>
        <mxCell id="uT1FihXkAcQ13UwmaDKQ-26" value="&lt;font style=&quot;font-size: 24px;&quot;&gt;&lt;b&gt;20&lt;/b&gt;&lt;/font&gt;" style="ellipse;whiteSpace=wrap;html=1;aspect=fixed;fillColor=none;" vertex="1" parent="1">
          <mxGeometry x="50" y="720" width="80" height="80" as="geometry" />
        </mxCell>
        <mxCell id="uT1FihXkAcQ13UwmaDKQ-27" value="" style="rounded=0;whiteSpace=wrap;html=1;fillColor=#f5f5f5;strokeColor=#666666;gradientColor=#808080;" vertex="1" parent="1">
          <mxGeometry x="200" y="655" width="20" height="80" as="geometry" />
        </mxCell>
        <mxCell id="uT1FihXkAcQ13UwmaDKQ-28" value="" style="rounded=0;whiteSpace=wrap;html=1;fillColor=#f5f5f5;strokeColor=#666666;gradientColor=#808080;" vertex="1" parent="1">
          <mxGeometry x="80" y="535" width="20" height="80" as="geometry" />
        </mxCell>
        <mxCell id="uT1FihXkAcQ13UwmaDKQ-29" value="" style="rounded=0;whiteSpace=wrap;html=1;fillColor=#f5f5f5;strokeColor=#666666;gradientColor=#808080;" vertex="1" parent="1">
          <mxGeometry x="80" y="285" width="20" height="80" as="geometry" />
        </mxCell>
        <mxCell id="uT1FihXkAcQ13UwmaDKQ-30" value="" style="rounded=0;whiteSpace=wrap;html=1;fillColor=#f5f5f5;strokeColor=#666666;gradientColor=#808080;rotation=-30;" vertex="1" parent="1">
          <mxGeometry x="165" y="161.34" width="20" height="100" as="geometry" />
        </mxCell>
        <mxCell id="uT1FihXkAcQ13UwmaDKQ-31" value="" style="rounded=0;whiteSpace=wrap;html=1;fillColor=#f5f5f5;strokeColor=#666666;gradientColor=#808080;rotation=30;" vertex="1" parent="1">
          <mxGeometry x="380" y="147.99" width="20" height="110" as="geometry" />
        </mxCell>
        <mxCell id="uT1FihXkAcQ13UwmaDKQ-32" value="" style="rounded=0;whiteSpace=wrap;html=1;fillColor=#f5f5f5;strokeColor=#666666;gradientColor=#808080;" vertex="1" parent="1">
          <mxGeometry x="470" y="290" width="20" height="80" as="geometry" />
        </mxCell>
        <mxCell id="uT1FihXkAcQ13UwmaDKQ-33" value="" style="rounded=0;whiteSpace=wrap;html=1;fillColor=#f5f5f5;strokeColor=#666666;gradientColor=#808080;" vertex="1" parent="1">
          <mxGeometry x="470" y="545" width="20" height="80" as="geometry" />
        </mxCell>
        <mxCell id="uT1FihXkAcQ13UwmaDKQ-34" value="" style="rounded=0;whiteSpace=wrap;html=1;fillColor=#f5f5f5;strokeColor=#666666;gradientColor=#808080;" vertex="1" parent="1">
          <mxGeometry x="350" y="665" width="20" height="80" as="geometry" />
        </mxCell>
        <mxCell id="uT1FihXkAcQ13UwmaDKQ-35" value="" style="rounded=0;whiteSpace=wrap;html=1;fillColor=#f5f5f5;strokeColor=#666666;gradientColor=#808080;rotation=90;" vertex="1" parent="1">
          <mxGeometry x="280" y="335" width="20" height="110" as="geometry" />
        </mxCell>
        <mxCell id="uT1FihXkAcQ13UwmaDKQ-43" value="&lt;div style=&quot;font-size: 14px;&quot; align=&quot;left&quot;&gt;&lt;font color=&quot;#ffffff&quot;&gt;&lt;b&gt;&lt;font face=&quot;Courier New&quot;&gt;&lt;font style=&quot;font-size: 14px;&quot;&gt;Connector 4&lt;br&gt;&lt;br&gt;Cell+ 14&lt;span style=&quot;white-space: pre;&quot;&gt;&#x9;&lt;/span&gt;Brown &lt;span style=&quot;white-space: pre;&quot;&gt;&#x9;&lt;/span&gt;P1&lt;br&gt;Cell+ 16&lt;span style=&quot;white-space: pre;&quot;&gt;&#x9;&lt;/span&gt;Red&lt;span style=&quot;white-space: pre;&quot;&gt;&#x9;&lt;/span&gt;&lt;span style=&quot;white-space: pre;&quot;&gt;&#x9;&lt;/span&gt;P2&lt;br&gt;Cell+ 20&lt;span style=&quot;white-space: pre;&quot;&gt;&#x9;&lt;/span&gt;Blue&lt;span style=&quot;white-space: pre;&quot;&gt;&#x9;&lt;/span&gt;P3&lt;br&gt;Cell+ 18&lt;span style=&quot;white-space: pre;&quot;&gt;&#x9;&lt;/span&gt;Grey&lt;span style=&quot;white-space: pre;&quot;&gt;&#x9;&lt;/span&gt;P4&lt;/font&gt;&lt;/font&gt;&lt;/b&gt;&lt;/font&gt;&lt;/div&gt;&lt;div style=&quot;font-size: 14px;&quot; align=&quot;left&quot;&gt;&lt;font color=&quot;#ffffff&quot;&gt;&lt;b&gt;&lt;font face=&quot;Courier New&quot;&gt;&lt;font style=&quot;font-size: 14px;&quot;&gt;&lt;font style=&quot;font-size: 14px;&quot;&gt;Cell+ 12&lt;span style=&quot;white-space: pre;&quot;&gt;&#x9;&lt;/span&gt;Black&lt;span style=&quot;white-space: pre;&quot;&gt;&#x9;&lt;/span&gt;P5&lt;/font&gt;&lt;/font&gt;&lt;font style=&quot;font-size: 14px;&quot;&gt;&lt;font style=&quot;font-size: 14px;&quot;&gt;&lt;br&gt;&lt;/font&gt;&lt;/font&gt;&lt;/font&gt;&lt;/b&gt;&lt;/font&gt;&lt;/div&gt;" style="whiteSpace=wrap;html=1;aspect=fixed;align=left;perimeterSpacing=0;strokeColor=#FFFFFF;fillColor=#000000;" vertex="1" parent="1">
          <mxGeometry x="575" y="690" width="180" height="180" as="geometry" />
        </mxCell>
        <mxCell id="uT1FihXkAcQ13UwmaDKQ-44" value="&lt;div style=&quot;font-size: 14px;&quot; align=&quot;left&quot;&gt;&lt;font color=&quot;#ffffff&quot;&gt;&lt;b&gt;&lt;font style=&quot;font-size: 14px;&quot;&gt;&lt;font style=&quot;font-size: 14px;&quot; face=&quot;Courier New&quot;&gt;Connector 1&lt;br&gt;&lt;br&gt;Cell+ 08&lt;span style=&quot;white-space: pre;&quot;&gt;&#x9;&lt;/span&gt;Black &lt;span style=&quot;white-space: pre;&quot;&gt;&#x9;&lt;/span&gt;P1&lt;br&gt;Cell+ 10&lt;span style=&quot;white-space: pre;&quot;&gt;&#x9;&lt;/span&gt;White&lt;span style=&quot;white-space: pre;&quot;&gt;&#x9;&lt;/span&gt;P2&lt;br&gt;Cell+ 02&lt;span style=&quot;white-space: pre;&quot;&gt;&#x9;&lt;/span&gt;Grey&lt;span style=&quot;white-space: pre;&quot;&gt;&#x9;&lt;/span&gt;P3&lt;br&gt;&lt;span style=&quot;background-color: rgb(0, 102, 204);&quot;&gt;Cell-&lt;/span&gt; 01&lt;span style=&quot;white-space: pre;&quot;&gt;&#x9;&lt;/span&gt;Blue&lt;span style=&quot;white-space: pre;&quot;&gt;&#x9;&lt;/span&gt;P4&lt;/font&gt;&lt;/font&gt;&lt;/b&gt;&lt;/font&gt;&lt;/div&gt;&lt;div style=&quot;font-size: 14px;&quot; align=&quot;left&quot;&gt;&lt;div style=&quot;font-size: 14px;&quot; align=&quot;left&quot;&gt;&lt;font color=&quot;#ffffff&quot;&gt;&lt;b&gt;&lt;font style=&quot;font-size: 14px;&quot;&gt;&lt;font style=&quot;font-size: 14px;&quot; face=&quot;Courier New&quot;&gt;&lt;font style=&quot;font-size: 14px;&quot;&gt;Cell+ 04&lt;span style=&quot;white-space: pre;&quot;&gt;&#x9;Red&lt;span style=&quot;white-space: pre;&quot;&gt;&#x9;&lt;/span&gt;&lt;/span&gt;&lt;span style=&quot;white-space: pre;&quot;&gt;&#x9;&lt;/span&gt;P5&lt;/font&gt;&lt;/font&gt;&lt;font style=&quot;font-size: 14px;&quot; face=&quot;tVRM3BPxQ4qg0KpQSfWL&quot;&gt;&lt;font style=&quot;font-size: 14px;&quot;&gt;&lt;br&gt;&lt;/font&gt;&lt;/font&gt;&lt;/font&gt;&lt;/b&gt;&lt;/font&gt;&lt;/div&gt;&lt;/div&gt;&lt;div style=&quot;font-size: 14px;&quot; align=&quot;left&quot;&gt;&lt;font color=&quot;#ffffff&quot;&gt;&lt;b&gt;&lt;font style=&quot;font-size: 14px;&quot;&gt;&lt;font style=&quot;font-size: 14px;&quot; face=&quot;Courier New&quot;&gt;&lt;font style=&quot;font-size: 14px;&quot;&gt;Cell+ 06&lt;span style=&quot;white-space: pre;&quot;&gt;&#x9;&lt;/span&gt;Brown&lt;span style=&quot;white-space: pre;&quot;&gt;&#x9;&lt;/span&gt;P6&lt;/font&gt;&lt;/font&gt;&lt;font style=&quot;font-size: 14px;&quot; face=&quot;tVRM3BPxQ4qg0KpQSfWL&quot;&gt;&lt;font style=&quot;font-size: 14px;&quot;&gt;&lt;br&gt;&lt;/font&gt;&lt;/font&gt;&lt;/font&gt;&lt;/b&gt;&lt;/font&gt;&lt;/div&gt;" style="whiteSpace=wrap;html=1;aspect=fixed;align=left;perimeterSpacing=0;fillColor=#000000;strokeColor=#FFFFFF;" vertex="1" parent="1">
          <mxGeometry x="575" y="90" width="180" height="180" as="geometry" />
        </mxCell>
        <mxCell id="uT1FihXkAcQ13UwmaDKQ-45" value="" style="ellipse;whiteSpace=wrap;html=1;aspect=fixed;fillColor=#647687;strokeColor=#314354;fontColor=#ffffff;" vertex="1" parent="1">
          <mxGeometry x="795" y="710" width="100" height="100" as="geometry" />
        </mxCell>
        <mxCell id="uT1FihXkAcQ13UwmaDKQ-46" value="" style="ellipse;whiteSpace=wrap;html=1;aspect=fixed;fillColor=#f8cecc;gradientColor=#ea6b66;strokeColor=#b85450;" vertex="1" parent="1">
          <mxGeometry x="820" y="735" width="50" height="50" as="geometry" />
        </mxCell>
        <mxCell id="uT1FihXkAcQ13UwmaDKQ-47" value="" style="ellipse;whiteSpace=wrap;html=1;aspect=fixed;fillColor=#647687;strokeColor=#314354;fontColor=#ffffff;" vertex="1" parent="1">
          <mxGeometry x="795" y="590" width="100" height="100" as="geometry" />
        </mxCell>
        <mxCell id="uT1FihXkAcQ13UwmaDKQ-48" value="" style="ellipse;whiteSpace=wrap;html=1;aspect=fixed;fillColor=#647687;strokeColor=#314354;fontColor=#ffffff;" vertex="1" parent="1">
          <mxGeometry x="915" y="710" width="100" height="100" as="geometry" />
        </mxCell>
        <mxCell id="uT1FihXkAcQ13UwmaDKQ-49" value="" style="ellipse;whiteSpace=wrap;html=1;aspect=fixed;fillColor=#647687;strokeColor=#314354;fontColor=#ffffff;" vertex="1" parent="1">
          <mxGeometry x="915" y="590" width="100" height="100" as="geometry" />
        </mxCell>
        <mxCell id="uT1FihXkAcQ13UwmaDKQ-50" value="" style="ellipse;whiteSpace=wrap;html=1;aspect=fixed;fillColor=#f8cecc;gradientColor=#ea6b66;strokeColor=#b85450;" vertex="1" parent="1">
          <mxGeometry x="940" y="615" width="50" height="50" as="geometry" />
        </mxCell>
        <mxCell id="uT1FihXkAcQ13UwmaDKQ-51" value="" style="ellipse;whiteSpace=wrap;html=1;aspect=fixed;fillColor=#647687;strokeColor=#314354;fontColor=#ffffff;" vertex="1" parent="1">
          <mxGeometry x="1065" y="710" width="100" height="100" as="geometry" />
        </mxCell>
        <mxCell id="uT1FihXkAcQ13UwmaDKQ-52" value="" style="ellipse;whiteSpace=wrap;html=1;aspect=fixed;fillColor=#f8cecc;gradientColor=#ea6b66;strokeColor=#b85450;" vertex="1" parent="1">
          <mxGeometry x="1090" y="735" width="50" height="50" as="geometry" />
        </mxCell>
        <mxCell id="uT1FihXkAcQ13UwmaDKQ-53" value="" style="ellipse;whiteSpace=wrap;html=1;aspect=fixed;fillColor=#647687;strokeColor=#314354;fontColor=#ffffff;" vertex="1" parent="1">
          <mxGeometry x="1065" y="590" width="100" height="100" as="geometry" />
        </mxCell>
        <mxCell id="uT1FihXkAcQ13UwmaDKQ-54" value="" style="ellipse;whiteSpace=wrap;html=1;aspect=fixed;fillColor=#647687;strokeColor=#314354;fontColor=#ffffff;" vertex="1" parent="1">
          <mxGeometry x="1185" y="710" width="100" height="100" as="geometry" />
        </mxCell>
        <mxCell id="uT1FihXkAcQ13UwmaDKQ-55" value="" style="ellipse;whiteSpace=wrap;html=1;aspect=fixed;fillColor=#647687;strokeColor=#314354;fontColor=#ffffff;" vertex="1" parent="1">
          <mxGeometry x="1185" y="590" width="100" height="100" as="geometry" />
        </mxCell>
        <mxCell id="uT1FihXkAcQ13UwmaDKQ-56" value="" style="ellipse;whiteSpace=wrap;html=1;aspect=fixed;fillColor=#f8cecc;gradientColor=#ea6b66;strokeColor=#b85450;" vertex="1" parent="1">
          <mxGeometry x="1210" y="615" width="50" height="50" as="geometry" />
        </mxCell>
        <mxCell id="uT1FihXkAcQ13UwmaDKQ-57" value="" style="ellipse;whiteSpace=wrap;html=1;aspect=fixed;fillColor=#647687;strokeColor=#314354;fontColor=#ffffff;" vertex="1" parent="1">
          <mxGeometry x="795" y="470" width="100" height="100" as="geometry" />
        </mxCell>
        <mxCell id="uT1FihXkAcQ13UwmaDKQ-58" value="" style="ellipse;whiteSpace=wrap;html=1;aspect=fixed;fillColor=#f8cecc;gradientColor=#ea6b66;strokeColor=#b85450;" vertex="1" parent="1">
          <mxGeometry x="820" y="495" width="50" height="50" as="geometry" />
        </mxCell>
        <mxCell id="uT1FihXkAcQ13UwmaDKQ-59" value="" style="ellipse;whiteSpace=wrap;html=1;aspect=fixed;fillColor=#647687;strokeColor=#314354;fontColor=#ffffff;" vertex="1" parent="1">
          <mxGeometry x="795" y="340" width="100" height="100" as="geometry" />
        </mxCell>
        <mxCell id="uT1FihXkAcQ13UwmaDKQ-60" value="" style="ellipse;whiteSpace=wrap;html=1;aspect=fixed;fillColor=#647687;strokeColor=#314354;fontColor=#ffffff;" vertex="1" parent="1">
          <mxGeometry x="795" y="220" width="100" height="100" as="geometry" />
        </mxCell>
        <mxCell id="uT1FihXkAcQ13UwmaDKQ-61" value="" style="ellipse;whiteSpace=wrap;html=1;aspect=fixed;fillColor=#f8cecc;gradientColor=#ea6b66;strokeColor=#b85450;" vertex="1" parent="1">
          <mxGeometry x="820" y="245" width="50" height="50" as="geometry" />
        </mxCell>
        <mxCell id="uT1FihXkAcQ13UwmaDKQ-62" value="" style="ellipse;whiteSpace=wrap;html=1;aspect=fixed;fillColor=#647687;strokeColor=#314354;fontColor=#ffffff;" vertex="1" parent="1">
          <mxGeometry x="915" y="220" width="100" height="100" as="geometry" />
        </mxCell>
        <mxCell id="uT1FihXkAcQ13UwmaDKQ-63" value="" style="ellipse;whiteSpace=wrap;html=1;aspect=fixed;fillColor=#f8cecc;strokeColor=#b85450;gradientColor=#ea6b66;" vertex="1" parent="1">
          <mxGeometry x="940" y="245" width="50" height="50" as="geometry" />
        </mxCell>
        <mxCell id="uT1FihXkAcQ13UwmaDKQ-64" value="" style="ellipse;whiteSpace=wrap;html=1;aspect=fixed;fillColor=#647687;strokeColor=#314354;fontColor=#ffffff;" vertex="1" parent="1">
          <mxGeometry x="915" y="340" width="100" height="100" as="geometry" />
        </mxCell>
        <mxCell id="uT1FihXkAcQ13UwmaDKQ-65" value="" style="ellipse;whiteSpace=wrap;html=1;aspect=fixed;fillColor=#647687;strokeColor=#314354;fontColor=#ffffff;" vertex="1" parent="1">
          <mxGeometry x="1065" y="340" width="100" height="100" as="geometry" />
        </mxCell>
        <mxCell id="uT1FihXkAcQ13UwmaDKQ-66" value="" style="ellipse;whiteSpace=wrap;html=1;aspect=fixed;fillColor=#f8cecc;gradientColor=#ea6b66;strokeColor=#b85450;" vertex="1" parent="1">
          <mxGeometry x="1090" y="365" width="50" height="50" as="geometry" />
        </mxCell>
        <mxCell id="uT1FihXkAcQ13UwmaDKQ-67" value="" style="ellipse;whiteSpace=wrap;html=1;aspect=fixed;fillColor=#647687;strokeColor=#314354;fontColor=#ffffff;" vertex="1" parent="1">
          <mxGeometry x="1065" y="220" width="100" height="100" as="geometry" />
        </mxCell>
        <mxCell id="uT1FihXkAcQ13UwmaDKQ-68" value="" style="ellipse;whiteSpace=wrap;html=1;aspect=fixed;fillColor=#647687;strokeColor=#314354;fontColor=#ffffff;" vertex="1" parent="1">
          <mxGeometry x="1185" y="340" width="100" height="100" as="geometry" />
        </mxCell>
        <mxCell id="uT1FihXkAcQ13UwmaDKQ-69" value="" style="ellipse;whiteSpace=wrap;html=1;aspect=fixed;fillColor=#f8cecc;gradientColor=#ea6b66;strokeColor=#b85450;" vertex="1" parent="1">
          <mxGeometry x="1210" y="365" width="50" height="50" as="geometry" />
        </mxCell>
        <mxCell id="uT1FihXkAcQ13UwmaDKQ-70" value="" style="ellipse;whiteSpace=wrap;html=1;aspect=fixed;fillColor=#647687;strokeColor=#314354;fontColor=#ffffff;" vertex="1" parent="1">
          <mxGeometry x="1185" y="220" width="100" height="100" as="geometry" />
        </mxCell>
        <mxCell id="uT1FihXkAcQ13UwmaDKQ-71" value="" style="ellipse;whiteSpace=wrap;html=1;aspect=fixed;fillColor=#647687;strokeColor=#314354;fontColor=#ffffff;" vertex="1" parent="1">
          <mxGeometry x="1185" y="470" width="100" height="100" as="geometry" />
        </mxCell>
        <mxCell id="uT1FihXkAcQ13UwmaDKQ-72" value="" style="ellipse;whiteSpace=wrap;html=1;aspect=fixed;fillColor=#647687;strokeColor=#314354;fontColor=#ffffff;" vertex="1" parent="1">
          <mxGeometry x="855" y="90" width="100" height="100" as="geometry" />
        </mxCell>
        <mxCell id="uT1FihXkAcQ13UwmaDKQ-73" value="" style="ellipse;whiteSpace=wrap;html=1;aspect=fixed;fillColor=#647687;fontColor=#ffffff;strokeColor=#314354;" vertex="1" parent="1">
          <mxGeometry x="1130" y="90" width="100" height="100" as="geometry" />
        </mxCell>
        <mxCell id="uT1FihXkAcQ13UwmaDKQ-74" value="" style="ellipse;whiteSpace=wrap;html=1;aspect=fixed;fillColor=#f8cecc;gradientColor=#ea6b66;strokeColor=#b85450;" vertex="1" parent="1">
          <mxGeometry x="1155" y="115" width="50" height="50" as="geometry" />
        </mxCell>
        <mxCell id="uT1FihXkAcQ13UwmaDKQ-75" value="&lt;div style=&quot;font-size: 16px;&quot;&gt;&lt;font style=&quot;font-size: 16px;&quot;&gt;&lt;b&gt;&lt;font style=&quot;font-size: 16px;&quot; color=&quot;#ffffff&quot;&gt;Big 4 Pin Connector Bottom Side&lt;br&gt;&lt;/font&gt;&lt;/b&gt;&lt;/font&gt;&lt;/div&gt;&lt;div style=&quot;font-size: 16px;&quot;&gt;&lt;font style=&quot;font-size: 16px;&quot;&gt;&lt;b&gt;&lt;font style=&quot;font-size: 16px;&quot; color=&quot;#ffffff&quot;&gt;___&amp;nbsp; COM CHG+ +P&lt;/font&gt;&lt;br&gt;&lt;/b&gt;&lt;/font&gt;&lt;/div&gt;" style="rounded=0;whiteSpace=wrap;html=1;strokeColor=#FFFFFF;fillColor=#000000;" vertex="1" parent="1">
          <mxGeometry x="835" y="820" width="400" height="50" as="geometry" />
        </mxCell>
        <mxCell id="uT1FihXkAcQ13UwmaDKQ-76" value="" style="endArrow=classic;html=1;rounded=0;" edge="1" parent="1">
          <mxGeometry width="50" height="50" relative="1" as="geometry">
            <mxPoint x="1155" y="500" as="sourcePoint" />
            <mxPoint x="1205" y="450" as="targetPoint" />
          </mxGeometry>
        </mxCell>
        <mxCell id="uT1FihXkAcQ13UwmaDKQ-77" value="" style="endArrow=none;html=1;rounded=0;" edge="1" parent="1">
          <mxGeometry width="50" height="50" relative="1" as="geometry">
            <mxPoint x="1155" y="500" as="sourcePoint" />
            <mxPoint x="1205" y="450" as="targetPoint" />
          </mxGeometry>
        </mxCell>
        <mxCell id="uT1FihXkAcQ13UwmaDKQ-78" value="&lt;font style=&quot;font-size: 24px;&quot;&gt;&lt;b&gt;20&lt;/b&gt;&lt;/font&gt;" style="ellipse;whiteSpace=wrap;html=1;aspect=fixed;fillColor=none;" vertex="1" parent="1">
          <mxGeometry x="1195" y="720" width="80" height="80" as="geometry" />
        </mxCell>
        <mxCell id="uT1FihXkAcQ13UwmaDKQ-79" value="&lt;font style=&quot;font-size: 24px;&quot;&gt;&lt;b&gt;19&lt;/b&gt;&lt;/font&gt;" style="ellipse;whiteSpace=wrap;html=1;aspect=fixed;fillColor=none;" vertex="1" parent="1">
          <mxGeometry x="1075" y="720" width="80" height="80" as="geometry" />
        </mxCell>
        <mxCell id="uT1FihXkAcQ13UwmaDKQ-80" value="&lt;div&gt;&lt;font style=&quot;font-size: 24px;&quot;&gt;&lt;b&gt;18&lt;/b&gt;&lt;/font&gt;&lt;/div&gt;" style="ellipse;whiteSpace=wrap;html=1;aspect=fixed;fillColor=none;" vertex="1" parent="1">
          <mxGeometry x="1075" y="600" width="80" height="80" as="geometry" />
        </mxCell>
        <mxCell id="uT1FihXkAcQ13UwmaDKQ-81" value="&lt;font style=&quot;font-size: 24px;&quot;&gt;&lt;b&gt;17&lt;/b&gt;&lt;/font&gt;" style="ellipse;whiteSpace=wrap;html=1;aspect=fixed;fillColor=none;" vertex="1" parent="1">
          <mxGeometry x="1195" y="600" width="80" height="80" as="geometry" />
        </mxCell>
        <mxCell id="uT1FihXkAcQ13UwmaDKQ-82" value="&lt;font style=&quot;font-size: 24px;&quot;&gt;&lt;b&gt;16&lt;/b&gt;&lt;/font&gt;" style="ellipse;whiteSpace=wrap;html=1;aspect=fixed;fillColor=none;" vertex="1" parent="1">
          <mxGeometry x="1195" y="480" width="80" height="80" as="geometry" />
        </mxCell>
        <mxCell id="uT1FihXkAcQ13UwmaDKQ-83" value="&lt;font style=&quot;font-size: 24px;&quot;&gt;&lt;b&gt;15&lt;/b&gt;&lt;/font&gt;" style="ellipse;whiteSpace=wrap;html=1;aspect=fixed;fillColor=none;" vertex="1" parent="1">
          <mxGeometry x="1195" y="350" width="80" height="80" as="geometry" />
        </mxCell>
        <mxCell id="uT1FihXkAcQ13UwmaDKQ-84" value="&lt;font style=&quot;font-size: 24px;&quot;&gt;&lt;b&gt;13&lt;/b&gt;&lt;/font&gt;" style="ellipse;whiteSpace=wrap;html=1;aspect=fixed;fillColor=none;" vertex="1" parent="1">
          <mxGeometry x="1140" y="100" width="80" height="80" as="geometry" />
        </mxCell>
        <mxCell id="uT1FihXkAcQ13UwmaDKQ-85" value="&lt;font style=&quot;font-size: 24px;&quot;&gt;&lt;b&gt;14&lt;/b&gt;&lt;/font&gt;" style="ellipse;whiteSpace=wrap;html=1;aspect=fixed;fillColor=none;" vertex="1" parent="1">
          <mxGeometry x="1195" y="230" width="80" height="80" as="geometry" />
        </mxCell>
        <mxCell id="uT1FihXkAcQ13UwmaDKQ-86" value="&lt;font style=&quot;font-size: 24px;&quot;&gt;&lt;b&gt;12&lt;/b&gt;&lt;/font&gt;" style="ellipse;whiteSpace=wrap;html=1;aspect=fixed;fillColor=none;" vertex="1" parent="1">
          <mxGeometry x="1075" y="230" width="80" height="80" as="geometry" />
        </mxCell>
        <mxCell id="uT1FihXkAcQ13UwmaDKQ-87" value="&lt;font style=&quot;font-size: 24px;&quot;&gt;&lt;b&gt;11&lt;/b&gt;&lt;/font&gt;" style="ellipse;whiteSpace=wrap;html=1;aspect=fixed;fillColor=none;" vertex="1" parent="1">
          <mxGeometry x="1075" y="350" width="80" height="80" as="geometry" />
        </mxCell>
        <mxCell id="uT1FihXkAcQ13UwmaDKQ-88" value="&lt;font style=&quot;font-size: 24px;&quot;&gt;&lt;b&gt;10&lt;/b&gt;&lt;/font&gt;" style="ellipse;whiteSpace=wrap;html=1;aspect=fixed;fillColor=none;" vertex="1" parent="1">
          <mxGeometry x="925" y="350" width="80" height="80" as="geometry" />
        </mxCell>
        <mxCell id="uT1FihXkAcQ13UwmaDKQ-89" value="&lt;font style=&quot;font-size: 24px;&quot;&gt;&lt;b&gt;9&lt;/b&gt;&lt;/font&gt;" style="ellipse;whiteSpace=wrap;html=1;aspect=fixed;fillColor=none;" vertex="1" parent="1">
          <mxGeometry x="925" y="230" width="80" height="80" as="geometry" />
        </mxCell>
        <mxCell id="uT1FihXkAcQ13UwmaDKQ-90" value="&lt;font style=&quot;font-size: 24px;&quot;&gt;&lt;b&gt;8&lt;/b&gt;&lt;/font&gt;" style="ellipse;whiteSpace=wrap;html=1;aspect=fixed;fillColor=none;" vertex="1" parent="1">
          <mxGeometry x="865" y="100" width="80" height="80" as="geometry" />
        </mxCell>
        <mxCell id="uT1FihXkAcQ13UwmaDKQ-91" value="&lt;font style=&quot;font-size: 24px;&quot;&gt;&lt;b&gt;7&lt;/b&gt;&lt;/font&gt;" style="ellipse;whiteSpace=wrap;html=1;aspect=fixed;fillColor=none;" vertex="1" parent="1">
          <mxGeometry x="805" y="230" width="80" height="80" as="geometry" />
        </mxCell>
        <mxCell id="uT1FihXkAcQ13UwmaDKQ-92" value="&lt;font style=&quot;font-size: 24px;&quot;&gt;&lt;b&gt;6&lt;/b&gt;&lt;/font&gt;" style="ellipse;whiteSpace=wrap;html=1;aspect=fixed;fillColor=none;" vertex="1" parent="1">
          <mxGeometry x="805" y="350" width="80" height="80" as="geometry" />
        </mxCell>
        <mxCell id="uT1FihXkAcQ13UwmaDKQ-93" value="&lt;font style=&quot;font-size: 24px;&quot;&gt;&lt;b&gt;5&lt;/b&gt;&lt;/font&gt;" style="ellipse;whiteSpace=wrap;html=1;aspect=fixed;fillColor=none;" vertex="1" parent="1">
          <mxGeometry x="805" y="480" width="80" height="80" as="geometry" />
        </mxCell>
        <mxCell id="uT1FihXkAcQ13UwmaDKQ-94" value="&lt;font style=&quot;font-size: 24px;&quot;&gt;&lt;b&gt;4&lt;/b&gt;&lt;/font&gt;" style="ellipse;whiteSpace=wrap;html=1;aspect=fixed;fillColor=none;" vertex="1" parent="1">
          <mxGeometry x="805" y="600" width="80" height="80" as="geometry" />
        </mxCell>
        <mxCell id="uT1FihXkAcQ13UwmaDKQ-95" value="&lt;font style=&quot;font-size: 24px;&quot;&gt;&lt;b&gt;3&lt;/b&gt;&lt;/font&gt;" style="ellipse;whiteSpace=wrap;html=1;aspect=fixed;fillColor=none;" vertex="1" parent="1">
          <mxGeometry x="925" y="600" width="80" height="80" as="geometry" />
        </mxCell>
        <mxCell id="uT1FihXkAcQ13UwmaDKQ-96" value="&lt;font style=&quot;font-size: 24px;&quot;&gt;&lt;b&gt;2&lt;/b&gt;&lt;/font&gt;" style="ellipse;whiteSpace=wrap;html=1;aspect=fixed;fillColor=none;" vertex="1" parent="1">
          <mxGeometry x="925" y="720" width="80" height="80" as="geometry" />
        </mxCell>
        <mxCell id="uT1FihXkAcQ13UwmaDKQ-97" value="&lt;font style=&quot;font-size: 24px;&quot;&gt;&lt;b&gt;1&lt;/b&gt;&lt;/font&gt;" style="ellipse;whiteSpace=wrap;html=1;aspect=fixed;fillColor=none;" vertex="1" parent="1">
          <mxGeometry x="805" y="720" width="80" height="80" as="geometry" />
        </mxCell>
        <mxCell id="uT1FihXkAcQ13UwmaDKQ-99" value="" style="rounded=0;whiteSpace=wrap;html=1;fillColor=#f5f5f5;strokeColor=#666666;gradientColor=#808080;" vertex="1" parent="1">
          <mxGeometry x="1225" y="410" width="20" height="80" as="geometry" />
        </mxCell>
        <mxCell id="uT1FihXkAcQ13UwmaDKQ-100" value="" style="rounded=0;whiteSpace=wrap;html=1;fillColor=#f5f5f5;strokeColor=#666666;gradientColor=#808080;" vertex="1" parent="1">
          <mxGeometry x="955" y="285" width="20" height="80" as="geometry" />
        </mxCell>
        <mxCell id="uT1FihXkAcQ13UwmaDKQ-101" value="" style="rounded=0;whiteSpace=wrap;html=1;fillColor=#f5f5f5;strokeColor=#666666;gradientColor=#808080;rotation=-30;" vertex="1" parent="1">
          <mxGeometry x="1200" y="152.99" width="20" height="100" as="geometry" />
        </mxCell>
        <mxCell id="uT1FihXkAcQ13UwmaDKQ-102" value="" style="rounded=0;whiteSpace=wrap;html=1;fillColor=#f5f5f5;strokeColor=#666666;gradientColor=#808080;rotation=30;" vertex="1" parent="1">
          <mxGeometry x="865" y="151.33999999999997" width="20" height="110" as="geometry" />
        </mxCell>
        <mxCell id="uT1FihXkAcQ13UwmaDKQ-103" value="" style="rounded=0;whiteSpace=wrap;html=1;fillColor=#f5f5f5;strokeColor=#666666;gradientColor=#808080;" vertex="1" parent="1">
          <mxGeometry x="1105" y="290" width="20" height="80" as="geometry" />
        </mxCell>
        <mxCell id="uT1FihXkAcQ13UwmaDKQ-104" value="" style="rounded=0;whiteSpace=wrap;html=1;fillColor=#f5f5f5;strokeColor=#666666;gradientColor=#808080;" vertex="1" parent="1">
          <mxGeometry x="835" y="420" width="20" height="80" as="geometry" />
        </mxCell>
        <mxCell id="uT1FihXkAcQ13UwmaDKQ-106" value="" style="rounded=0;whiteSpace=wrap;html=1;fillColor=#f5f5f5;strokeColor=#666666;gradientColor=#808080;rotation=90;" vertex="1" parent="1">
          <mxGeometry x="1165" y="717.5" width="20" height="85" as="geometry" />
        </mxCell>
        <mxCell id="uT1FihXkAcQ13UwmaDKQ-107" value="&lt;div style=&quot;font-size: 14px;&quot; align=&quot;left&quot;&gt;&lt;font color=&quot;#ffffff&quot;&gt;&lt;b&gt;&lt;font face=&quot;Courier New&quot;&gt;&lt;font style=&quot;font-size: 14px;&quot;&gt;Connector 2&lt;br&gt;&lt;br&gt;Cell+ 07&lt;span style=&quot;white-space: pre;&quot;&gt;&#x9;Black&lt;/span&gt; &lt;span style=&quot;white-space: pre;&quot;&gt;&#x9;&lt;/span&gt;P1&lt;br&gt;Cell+ 05&lt;span style=&quot;white-space: pre;&quot;&gt;&#x9;&lt;/span&gt;White&lt;span style=&quot;white-space: pre;&quot;&gt;&#x9;&lt;/span&gt;P2&lt;br&gt;Cell+ 03&lt;span style=&quot;white-space: pre;&quot;&gt;&#x9;&lt;/span&gt;Grey&lt;span style=&quot;white-space: pre;&quot;&gt;&#x9;&lt;/span&gt;P3&lt;br&gt;Cell+ 01&lt;span style=&quot;white-space: pre;&quot;&gt;&#x9;&lt;/span&gt;Blue&lt;span style=&quot;white-space: pre;&quot;&gt;&#x9;&lt;/span&gt;P4&lt;/font&gt;&lt;/font&gt;&lt;/b&gt;&lt;/font&gt;&lt;/div&gt;&lt;div style=&quot;font-size: 14px;&quot; align=&quot;left&quot;&gt;&lt;font color=&quot;#ffffff&quot;&gt;&lt;b&gt;&lt;font face=&quot;Courier New&quot;&gt;&lt;font style=&quot;font-size: 14px;&quot;&gt;&lt;font style=&quot;font-size: 14px;&quot;&gt;Cell+ RED&lt;span style=&quot;white-space: pre;&quot;&gt;&#x9;&lt;/span&gt;Red&lt;span style=&quot;white-space: pre;&quot;&gt;&#x9;&lt;/span&gt;&lt;span style=&quot;white-space: pre;&quot;&gt;&#x9;&lt;/span&gt;P5&lt;/font&gt;&lt;/font&gt;&lt;font style=&quot;font-size: 14px;&quot;&gt;&lt;font style=&quot;font-size: 14px;&quot;&gt;&lt;br&gt;&lt;/font&gt;&lt;/font&gt;&lt;/font&gt;&lt;/b&gt;&lt;/font&gt;&lt;/div&gt;&lt;div style=&quot;font-size: 14px;&quot; align=&quot;left&quot;&gt;&lt;font color=&quot;#ffffff&quot;&gt;&lt;b&gt;&lt;font face=&quot;Courier New&quot;&gt;&lt;font style=&quot;font-size: 14px;&quot;&gt;&lt;font style=&quot;font-size: 14px;&quot;&gt;Cell+ 09&lt;span style=&quot;white-space: pre;&quot;&gt;&#x9;&lt;/span&gt;Brown&lt;span style=&quot;white-space: pre;&quot;&gt;&#x9;&lt;/span&gt;P6&lt;br&gt;&lt;/font&gt;&lt;/font&gt;&lt;/font&gt;&lt;/b&gt;&lt;/font&gt;&lt;/div&gt;" style="whiteSpace=wrap;html=1;aspect=fixed;align=left;perimeterSpacing=0;strokeColor=#FFFFFF;fillColor=#000000;" vertex="1" parent="1">
          <mxGeometry x="575" y="290" width="180" height="180" as="geometry" />
        </mxCell>
        <mxCell id="uT1FihXkAcQ13UwmaDKQ-108" value="&lt;div style=&quot;font-size: 14px;&quot; align=&quot;left&quot;&gt;&lt;font color=&quot;#ffffff&quot;&gt;&lt;b&gt;&lt;font style=&quot;font-size: 14px;&quot;&gt;&lt;font style=&quot;font-size: 14px;&quot; face=&quot;Courier New&quot;&gt;Connector 3&lt;br&gt;&lt;br&gt;Cell+ 11&lt;span style=&quot;white-space: pre;&quot;&gt;&#x9;&lt;/span&gt;Black &lt;span style=&quot;white-space: pre;&quot;&gt;&#x9;&lt;/span&gt;P1&lt;br&gt;Cell+ COM&lt;span style=&quot;white-space: pre;&quot;&gt;&#x9;Yellow&lt;/span&gt;&lt;span style=&quot;white-space: pre;&quot;&gt;&#x9;&lt;/span&gt;P2&lt;br&gt;Cell+ 19&lt;span style=&quot;white-space: pre;&quot;&gt;&#x9;Blue&lt;/span&gt;&lt;span style=&quot;white-space: pre;&quot;&gt;&#x9;&lt;/span&gt;P3&lt;br&gt;Cell+ 17&lt;span style=&quot;white-space: pre;&quot;&gt;&#x9;Grey&lt;/span&gt;&lt;span style=&quot;white-space: pre;&quot;&gt;&#x9;&lt;/span&gt;P4&lt;br&gt;&lt;/font&gt;&lt;/font&gt;&lt;/b&gt;&lt;b&gt;&lt;font style=&quot;font-size: 14px;&quot;&gt;&lt;font style=&quot;font-size: 14px;&quot; face=&quot;Courier New&quot;&gt;&lt;font style=&quot;font-size: 14px;&quot;&gt;Cell+ 15&lt;span style=&quot;white-space: pre;&quot;&gt;&#x9;White&lt;/span&gt;&lt;span style=&quot;white-space: pre;&quot;&gt;&#x9;&lt;/span&gt;P5&lt;/font&gt;&lt;/font&gt;&lt;font style=&quot;font-size: 14px;&quot; face=&quot;tVRM3BPxQ4qg0KpQSfWL&quot;&gt;&lt;font style=&quot;font-size: 14px;&quot;&gt;&lt;br&gt;&lt;/font&gt;&lt;/font&gt;&lt;/font&gt;&lt;/b&gt;&lt;/font&gt;&lt;/div&gt;&lt;div style=&quot;font-size: 14px;&quot; align=&quot;left&quot;&gt;&lt;font color=&quot;#ffffff&quot;&gt;&lt;b&gt;&lt;font style=&quot;font-size: 14px;&quot;&gt;&lt;font style=&quot;font-size: 14px;&quot; face=&quot;Courier New&quot;&gt;&lt;font style=&quot;font-size: 14px;&quot;&gt;Cell+ 13&lt;span style=&quot;white-space: pre;&quot;&gt;&#x9;Black&lt;/span&gt;&lt;span style=&quot;white-space: pre;&quot;&gt;&#x9;&lt;/span&gt;P6&lt;/font&gt;&lt;/font&gt;&lt;font style=&quot;font-size: 14px;&quot; face=&quot;tVRM3BPxQ4qg0KpQSfWL&quot;&gt;&lt;font style=&quot;font-size: 14px;&quot;&gt;&lt;br&gt;&lt;/font&gt;&lt;/font&gt;&lt;/font&gt;&lt;/b&gt;&lt;/font&gt;&lt;/div&gt;" style="whiteSpace=wrap;html=1;aspect=fixed;align=left;perimeterSpacing=0;strokeColor=#FFFFFF;fillColor=#000000;" vertex="1" parent="1">
          <mxGeometry x="575" y="490" width="180" height="180" as="geometry" />
        </mxCell>
        <mxCell id="uT1FihXkAcQ13UwmaDKQ-109" value="" style="rounded=0;whiteSpace=wrap;html=1;fillColor=#f5f5f5;strokeColor=#666666;gradientColor=#808080;rotation=90;" vertex="1" parent="1">
          <mxGeometry x="902.5" y="727.5" width="20" height="85" as="geometry" />
        </mxCell>
        <mxCell id="uT1FihXkAcQ13UwmaDKQ-110" value="" style="rounded=0;whiteSpace=wrap;html=1;fillColor=#f5f5f5;strokeColor=#666666;gradientColor=#808080;rotation=90;" vertex="1" parent="1">
          <mxGeometry x="895" y="597.5" width="20" height="85" as="geometry" />
        </mxCell>
        <mxCell id="uT1FihXkAcQ13UwmaDKQ-112" value="" style="rounded=0;whiteSpace=wrap;html=1;fillColor=#f5f5f5;strokeColor=#666666;gradientColor=#808080;rotation=90;" vertex="1" parent="1">
          <mxGeometry x="1165" y="597.5" width="20" height="85" as="geometry" />
        </mxCell>
        <mxCell id="uT1FihXkAcQ13UwmaDKQ-115" value="&lt;b&gt;&lt;font color=&quot;#ffffff&quot;&gt;Connector (1)&lt;br&gt;6 Pin&lt;/font&gt;&lt;/b&gt;" style="rounded=0;whiteSpace=wrap;html=1;strokeColor=#FFFFFF;fillColor=#000000;" vertex="1" parent="1">
          <mxGeometry x="400" y="40" width="120" height="40" as="geometry" />
        </mxCell>
        <mxCell id="uT1FihXkAcQ13UwmaDKQ-116" value="&lt;b&gt;&lt;font color=&quot;#ffffff&quot;&gt;Connector (4)&lt;br&gt;5 Pin&lt;/font&gt;&lt;/b&gt;" style="rounded=0;whiteSpace=wrap;html=1;strokeColor=#FFFFFF;fillColor=#000000;" vertex="1" parent="1">
          <mxGeometry x="90" y="40" width="120" height="40" as="geometry" />
        </mxCell>
        <mxCell id="uT1FihXkAcQ13UwmaDKQ-117" value="&lt;b&gt;&lt;font color=&quot;#ffffff&quot;&gt;Connector (2)&lt;br&gt;6 Pin&lt;/font&gt;&lt;/b&gt;" style="rounded=0;whiteSpace=wrap;html=1;strokeColor=#FFFFFF;fillColor=#000000;" vertex="1" parent="1">
          <mxGeometry x="845" y="40" width="120" height="40" as="geometry" />
        </mxCell>
        <mxCell id="uT1FihXkAcQ13UwmaDKQ-118" value="&lt;b&gt;&lt;font color=&quot;#ffffff&quot;&gt;Connector (3)&lt;br&gt;6 Pin&lt;/font&gt;&lt;/b&gt;" style="rounded=0;whiteSpace=wrap;html=1;strokeColor=#FFFFFF;fillColor=#000000;" vertex="1" parent="1">
          <mxGeometry x="1120" y="40" width="120" height="40" as="geometry" />
        </mxCell>
      </root>
    </mxGraphModel>
  </diagram>
</mxfile>
